<svg width="24" height="24" viewBox="0 0 24 24" fill="none" xmlns="http://www.w3.org/2000/svg">
<path d="M19.15 8C18.6196 8 18.1109 8.21071 17.7358 8.58579C17.3607 8.96086 17.15 9.46957 17.15 10V18C17.15 18.5304 17.3607 19.0392 17.7358 19.4142C18.1109 19.7893 18.6196 20 19.15 20C19.6805 20 20.1892 19.7893 20.5642 19.4142C20.9393 19.0392 21.15 18.5304 21.15 18V10C21.15 9.46957 20.9393 8.96086 20.5642 8.58579C20.1892 8.21071 19.6805 8 19.15 8Z" fill="#3F45EA"/>
<path d="M12.75 4C12.2196 4 11.7109 4.21071 11.3358 4.58579C10.9607 4.96086 10.75 5.46957 10.75 6V18C10.75 18.5305 10.9607 19.0392 11.3358 19.4142C11.7109 19.7893 12.2196 20 12.75 20C13.2804 20 13.7891 19.7893 14.1642 19.4142C14.5393 19.0392 14.75 18.5305 14.75 18V6C14.75 5.46957 14.5393 4.96086 14.1642 4.58579C13.7891 4.21071 13.2804 4 12.75 4V4Z" fill="#18204E"/>
<path d="M6.34998 12C5.81954 12 5.31084 12.2107 4.93576 12.5858C4.56069 12.9609 4.34998 13.4696 4.34998 14V18C4.34998 18.5304 4.56069 19.0392 4.93576 19.4142C5.31084 19.7893 5.81954 20 6.34998 20C6.88041 20 7.38912 19.7893 7.76419 19.4142C8.13927 19.0392 8.34998 18.5304 8.34998 18V14C8.34998 13.4696 8.13927 12.9609 7.76419 12.5858C7.38912 12.2107 6.88041 12 6.34998 12Z" fill="#18204E"/>
</svg>
