<svg width="32" height="32" viewBox="0 0 32 32" fill="none" xmlns="http://www.w3.org/2000/svg">
<path d="M16.4534 9.61188C16.8095 9.01712 17.373 8.16591 18.0849 7.34914H18.0857C18.6885 6.65594 19.8691 5.76624 19.8691 5.76624C20.0466 5.63214 20.0275 5.44536 19.8258 5.35137L18.3989 4.6845C18.1971 4.5901 17.9228 4.65898 17.7891 4.83684C17.7891 4.83684 16.7337 6.35086 15.4915 9.57379C11.6508 7.83653 8 10.2698 8 14.5012C8 18.9209 11.4004 25.6346 15.9988 23.608C20.8419 25.7038 24 18.9213 24 14.5012C24 10.2334 20.7183 7.73119 16.4534 9.61188Z" fill="#F5F5FA"/>
<path d="M15.5928 8.1805C15.8148 8.16186 16.0109 7.96537 16.0287 7.74375C16.0287 7.74375 16.1713 6.0154 14.9668 4.80969C13.7587 3.60357 12.0336 3.7474 12.0336 3.7474C11.8116 3.76604 11.6155 3.96253 11.5972 4.18415C11.5972 4.18415 11.4522 5.91331 12.6583 7.11942C13.8636 8.32433 15.5928 8.1805 15.5928 8.1805Z" fill="#46518A"/>
</svg>
