<?xml version="1.0" encoding="UTF-8" standalone="no"?>
<svg
   width="34"
   height="35"
   viewBox="0 0 34 35"
   fill="none"
   version="1.1"
   id="svg14"
   sodipodi:docname="Frame 29.svg"
   inkscape:version="1.1 (c68e22c387, 2021-05-23)"
   xmlns:inkscape="http://www.inkscape.org/namespaces/inkscape"
   xmlns:sodipodi="http://sodipodi.sourceforge.net/DTD/sodipodi-0.dtd"
   xmlns="http://www.w3.org/2000/svg"
   xmlns:svg="http://www.w3.org/2000/svg">
  <defs
     id="defs18" />
  <sodipodi:namedview
     id="namedview16"
     pagecolor="#505050"
     bordercolor="#eeeeee"
     borderopacity="1"
     inkscape:pageshadow="0"
     inkscape:pageopacity="0"
     inkscape:pagecheckerboard="0"
     showgrid="false"
     inkscape:zoom="13.685714"
     inkscape:cx="16.988518"
     inkscape:cy="17.536534"
     inkscape:window-width="1366"
     inkscape:window-height="699"
     inkscape:window-x="0"
     inkscape:window-y="32"
     inkscape:window-maximized="1"
     inkscape:current-layer="svg14" />
  <g
     opacity="0.64"
     id="g8">
    <path
       d="M10.3027 19.3076C10.8947 19.7032 11.5907 19.9143 12.3027 19.9143C13.2572 19.9132 14.1722 19.5336 14.8471 18.8587C15.522 18.1838 15.9017 17.2687 15.9027 16.3143C15.9027 15.6023 15.6916 14.9063 15.296 14.3142C14.9005 13.7222 14.3382 13.2608 13.6804 12.9883C13.0226 12.7159 12.2987 12.6446 11.6004 12.7835C10.9021 12.9224 10.2606 13.2652 9.75715 13.7687C9.25368 14.2722 8.91081 14.9136 8.77191 15.612C8.633 16.3103 8.70429 17.0341 8.97677 17.692C9.24924 18.3498 9.71066 18.912 10.3027 19.3076Z"
       fill="#F5F5FA"
       id="path2" />
    <path
       d="M7.10273 28.7143H17.5027C17.7149 28.7143 17.9184 28.63 18.0684 28.48C18.2184 28.33 18.3027 28.1265 18.3027 27.9143V27.5143C18.3027 25.923 17.6706 24.3969 16.5454 23.2717C15.4202 22.1464 13.894 21.5143 12.3027 21.5143C10.7114 21.5143 9.18531 22.1464 8.06009 23.2717C6.93488 24.3969 6.30273 25.923 6.30273 27.5143V27.9143C6.30273 28.1265 6.38702 28.33 6.53705 28.48C6.68708 28.63 6.89056 28.7143 7.10273 28.7143Z"
       fill="#F5F5FA"
       id="path4" />
    <path
       d="M20.4968 16.4857C19.7848 16.4857 19.0888 16.2746 18.4968 15.879C17.9048 15.4835 17.4433 14.9212 17.1709 14.2634C16.8984 13.6056 16.8271 12.8817 16.966 12.1834C17.1049 11.4851 17.4478 10.8436 17.9512 10.3402C18.4547 9.83668 19.0962 9.49382 19.7945 9.35491C20.4928 9.216 21.2167 9.2873 21.8745 9.55977C22.5323 9.83225 23.0945 10.2937 23.4901 10.8857C23.8857 11.4777 24.0968 12.1737 24.0968 12.8857C24.0958 13.8402 23.7161 14.7552 23.0412 15.4302C22.3663 16.1051 21.4513 16.4847 20.4968 16.4857ZM19.36 18.1025C18.6149 18.2025 17.8985 18.4553 17.2556 18.845C16.6128 19.2347 16.0573 19.753 15.624 20.3673C17.4167 21.1815 18.8253 22.6571 19.5552 24.4857H24.8968C25.109 24.4857 25.3125 24.4015 25.4625 24.2514C25.6125 24.1014 25.6968 23.8979 25.6968 23.6857V23.6553C25.696 22.8579 25.5251 22.0698 25.1954 21.3437C24.8658 20.6176 24.3851 19.9701 23.7853 19.4446C23.1856 18.919 22.4806 18.5275 21.7175 18.296C20.9544 18.0646 20.1507 17.9986 19.36 18.1025Z"
       fill="#46518A"
       id="path6" />
  </g>
</svg>
