<svg width="32" height="32" viewBox="0 0 32 32" fill="none" xmlns="http://www.w3.org/2000/svg">
<rect x="8.7998" y="10.5931" width="12.5583" height="5.32776" fill="#46518A"/>
<rect x="8.7998" y="15.9208" width="13.7761" height="4.41747" fill="#46518A"/>
<path d="M22.5452 14.7324V11.2727C22.5442 10.405 22.1991 9.57317 21.5856 8.95962C20.972 8.34608 20.1401 8.00096 19.2725 8H10.5452C9.6775 8.00096 8.84563 8.34608 8.23208 8.95962C7.61854 9.57317 7.27342 10.405 7.27246 11.2727V19.2727C7.27492 19.8831 7.49659 20.4722 7.89708 20.9327C8.29757 21.3933 8.85021 21.6946 9.45428 21.7818V21.8182C9.45428 22.3968 9.68415 22.9518 10.0933 23.361C10.5025 23.7701 11.0574 24 11.6361 24C12.2148 24 12.7697 23.7701 13.1789 23.361C13.588 22.9518 13.8179 22.3968 13.8179 21.8182H18.1816C18.1816 22.3968 18.4114 22.9518 18.8206 23.361C19.2298 23.7701 19.7847 24 20.3634 24C20.942 24 21.497 23.7701 21.9061 23.361C22.3153 22.9518 22.5452 22.3968 22.5452 21.8182C22.5452 21.8058 22.5452 21.7942 22.5452 21.7818C23.1493 21.6946 23.7019 21.3933 24.1024 20.9327C24.5029 20.4722 24.7245 19.8831 24.727 19.2727V17.8182C24.7262 17.1416 24.5161 16.4817 24.1255 15.9293C23.7348 15.3768 23.1828 14.9587 22.5452 14.7324ZM9.45428 11.6364H11.6361V14.5455H9.45428V11.6364ZM13.8179 11.6364H15.9997V19.6364H13.8179V11.6364ZM18.1816 11.6364H20.3634V14.5455H18.1816V11.6364ZM9.45428 16.7273H11.6361V19.6364H9.81792C9.72147 19.6364 9.62898 19.5981 9.56079 19.5299C9.49259 19.4617 9.45428 19.3692 9.45428 19.2727V16.7273ZM22.5452 19.2727C22.5452 19.3692 22.5069 19.4617 22.4387 19.5299C22.3705 19.5981 22.278 19.6364 22.1816 19.6364H18.1816V16.7273H21.4543C21.7436 16.7273 22.0211 16.8422 22.2257 17.0468C22.4303 17.2514 22.5452 17.5289 22.5452 17.8182V19.2727Z" fill="#F5F5FA"/>
</svg>
