<svg width="35" height="36" viewBox="0 0 35 36" fill="none" xmlns="http://www.w3.org/2000/svg">
<path fill-rule="evenodd" clip-rule="evenodd" d="M27.8124 28.274C27.2432 28.8595 26.2389 28.7769 25.5681 28.0868L17.7791 20.0753L9.43278 28.6601C8.76311 29.3489 7.75763 29.4327 7.18841 28.8473C6.61919 28.2618 6.70072 27.2276 7.37039 26.5388L15.7167 17.954L7.37046 9.3693C6.70079 8.6805 6.61926 7.64629 7.18848 7.06081C7.7577 6.47532 8.76318 6.55918 9.43285 7.24798L17.7791 15.8327L25.568 7.82123C26.2389 7.13118 27.2431 7.04858 27.8124 7.63406C28.3816 8.21954 28.3013 9.2525 27.6304 9.94255L19.8415 17.954L27.6305 25.9655C28.3013 26.6556 28.3816 27.6885 27.8124 28.274Z" fill="#252A31"/>
</svg>
