<svg width="132" height="132" viewBox="0 0 132 132" fill="none" xmlns="http://www.w3.org/2000/svg">
<path fill-rule="evenodd" clip-rule="evenodd" d="M29.2441 52.9752L29.2019 53.0408L29.1698 53.1128C28.9734 53.553 28.875 54.0244 28.875 54.5147C28.875 54.8325 28.9392 55.1649 29.1071 55.4707C29.2757 55.7778 29.5153 55.9967 29.7773 56.1435C30.2034 56.3823 30.6976 56.4891 31.2064 56.3262C31.7206 56.1615 32.1209 55.7319 32.4268 55.3033L32.4273 55.3038L32.4471 55.2737C36.395 49.3 41.3235 44.6793 47.2399 41.4005C53.1575 38.121 59.501 36.4804 66.2829 36.4804C73.0665 36.4804 79.4639 38.103 85.4862 41.349C91.4969 44.5886 96.4357 49.2227 100.313 55.2624L100.312 55.2632L100.341 55.3033C100.703 55.8108 101.226 56.2535 101.918 56.2535C102.453 56.2535 102.946 56.042 103.329 55.6126C103.613 55.2937 103.857 54.8885 103.931 54.3939C104.019 53.8039 103.789 53.2395 103.565 52.8197L103.544 52.7803L103.519 52.7431C99.199 46.1329 93.757 41.0518 87.2015 37.5126C80.6557 33.9787 73.6791 32.2119 66.2829 32.2119C58.8834 32.2119 51.9204 34.018 45.4059 37.6304C38.8864 41.2456 33.4962 46.3644 29.2441 52.9752Z" fill="#3F45EA"/>
<path fill-rule="evenodd" clip-rule="evenodd" d="M80.2606 110.059C80.4725 110.534 80.4835 111.039 80.3831 111.507C80.2875 112.023 80.0674 112.564 79.6008 112.913C79.062 113.315 78.4611 113.233 77.9962 113.04C70.9211 111.026 65.077 107.042 60.4929 101.093C55.871 95.0947 53.5728 87.8158 53.5728 79.3158C53.5728 75.503 54.8333 72.263 57.3365 69.6607C59.827 67.0715 62.8253 65.7697 66.2829 65.7697C69.7404 65.7697 72.7388 67.0715 75.2293 69.6607C77.7324 72.263 78.9929 75.503 78.9929 79.3158C78.9929 81.8864 79.8691 84.0279 81.6638 85.8008C83.4816 87.5964 85.5662 88.4805 87.9565 88.4805C90.2722 88.4805 92.2853 87.6025 94.0359 85.8124C95.7662 84.0432 96.6176 81.8985 96.6176 79.3158C96.6176 70.328 93.6477 62.8371 87.6869 56.7767C81.7103 50.7001 74.5917 47.6663 66.2829 47.6663C57.974 47.6663 50.8554 50.7001 44.8788 56.7767C38.918 62.8371 35.9481 70.328 35.9481 79.3158C35.9481 81.0576 36.1268 83.3601 36.4937 86.2385C36.8519 89.0485 37.6208 92.271 38.8136 95.9125C38.98 96.3856 39.1161 97.1154 38.6768 97.7308C38.4778 98.0096 38.2378 98.248 37.9673 98.4501L37.9197 98.4857L37.8684 98.5144C37.403 98.7752 36.8976 98.8383 36.3923 98.7124C35.7352 98.5488 35.3083 98.0405 35.0873 97.4212L35.0705 97.3744L35.0716 97.374C34.1844 94.4672 33.4849 91.5031 32.9731 88.4819C32.4589 85.4463 32.2016 82.3907 32.2016 79.3158C32.2016 69.3157 35.6028 60.751 42.3644 53.675C49.1173 46.6081 57.1045 43.0588 66.2829 43.0588C75.6525 43.0588 83.7244 46.5436 90.4496 53.5016C97.1868 60.472 100.566 69.0982 100.566 79.3158C100.566 83.0551 99.321 86.2539 96.8573 88.8529C94.3985 91.4467 91.4143 92.7489 87.9565 92.7489C84.4373 92.7489 81.3897 91.4515 78.8637 88.8629C76.3302 86.2666 75.0448 83.065 75.0448 79.3158C75.0448 76.6495 74.1879 74.4698 72.4631 72.7062C70.7174 70.9212 68.6724 70.0381 66.2829 70.0381C63.893 70.0381 61.8281 70.9217 60.0464 72.7121C58.2896 74.4775 57.4201 76.6555 57.4201 79.3158C57.4201 86.9355 59.473 93.2237 63.5403 98.2529C67.6581 103.344 72.787 106.918 78.9488 108.975L78.9775 108.985C79.4333 109.155 79.9917 109.456 80.2606 110.059Z" fill="#18204E"/>
<path fill-rule="evenodd" clip-rule="evenodd" d="M43.0403 31.6602L43.0886 31.6385L43.1343 31.611C46.6957 29.4673 50.4198 27.8606 54.3081 26.7896C58.1989 25.7178 62.1899 25.1815 66.2829 25.1815C70.3706 25.1815 74.3916 25.754 78.3477 26.8995C82.3195 28.0495 86.1245 29.6258 89.7638 31.6282L89.7953 31.6456L89.8279 31.6602C90.3327 31.8865 90.9351 31.955 91.4927 31.5978C91.8375 31.377 92.1321 31.0846 92.3523 30.7144C92.6194 30.2653 92.7019 29.7577 92.6455 29.2526C92.5614 28.4978 92.088 28.0315 91.5718 27.7869C87.6901 25.5767 83.6215 23.8611 79.3675 22.6405C75.0911 21.4134 70.7289 20.8 66.2829 20.8C61.9688 20.8 57.6739 21.4141 53.3998 22.6405C49.1245 23.8672 45.0375 25.6691 41.1403 28.0447L41.104 28.0669L41.0696 28.0926C40.583 28.4562 40.3671 29.0158 40.3671 29.6006C40.3671 30.0212 40.4546 30.5053 40.7607 30.8981C40.9444 31.1901 41.1735 31.451 41.4593 31.6432C42.0236 32.0227 42.6501 31.8351 43.0403 31.6602Z" fill="#3F45EA"/>
<path fill-rule="evenodd" clip-rule="evenodd" d="M88.8799 99.2187C89.5916 99.1462 90.3726 99.0372 91.2235 98.8908C91.7409 98.7803 92.3143 98.8459 92.7839 99.2846C93.0856 99.5664 93.3339 99.9217 93.464 100.359L93.4747 100.395L93.4829 100.432C93.5888 100.907 93.581 101.42 93.3656 101.903C93.0948 102.51 92.5711 102.778 92.108 102.889C90.8648 103.274 89.7412 103.497 88.7472 103.539C87.8477 103.576 87.2724 103.596 87.0492 103.596C80.9046 103.596 75.5579 101.297 71.0538 96.7184C66.525 92.1145 64.2584 86.2887 64.2584 79.3158C64.2584 78.7763 64.3805 78.229 64.7165 77.7771C65.1029 77.2574 65.65 77.0686 66.1821 77.0686C66.7141 77.0686 67.2612 77.2574 67.6476 77.7771C67.9836 78.229 68.1057 78.7763 68.1057 79.3158C68.1057 85.1435 70.0022 89.8968 73.8012 93.6539C77.6368 97.4471 82.0403 99.3274 87.0492 99.3274C87.5502 99.3274 88.159 99.2922 88.8799 99.2187Z" fill="#18204E"/>
<path fill-rule="evenodd" clip-rule="evenodd" d="M46.2543 97.0392C48.4793 102.104 51.5686 106.923 55.5105 111.499C55.7003 111.756 55.9462 112.001 56.2629 112.147C56.6193 112.311 56.998 112.319 57.3541 112.186C57.7133 112.052 58.0883 111.856 58.3685 111.542C58.6805 111.193 58.9083 110.758 58.9738 110.244C59.0646 109.532 58.7229 108.955 58.3744 108.562C54.529 104.102 51.6508 99.6686 49.7186 95.2637C47.8097 90.9122 46.8353 85.6081 46.8353 79.3158C46.8353 73.4872 48.7332 68.6302 52.5464 64.6794C56.3725 60.7153 60.9349 58.7392 66.2829 58.7392C71.6311 58.7392 76.2301 60.7158 80.1257 64.6852C84.0046 68.6376 85.932 73.4929 85.932 79.3158C85.932 79.8933 86.0935 80.4955 86.5565 80.9279C86.9643 81.3089 87.463 81.45 87.9565 81.45C88.4387 81.45 88.9674 81.3135 89.3668 80.8657C89.7628 80.422 89.8801 79.8419 89.8801 79.3158C89.8801 72.3334 87.5403 66.4189 82.8869 61.6346C78.2464 56.8635 72.6958 54.4707 66.2829 54.4707C59.8696 54.4707 54.35 56.8638 49.7746 61.6398C45.1898 66.4255 42.8872 72.3386 42.8872 79.3158C42.8872 85.9921 44.0002 91.9085 46.2543 97.0392Z" fill="#18204E"/>
<path d="M111.962 111.962C101.328 122.595 87.3368 129.213 72.3711 130.687C57.4054 132.161 42.3916 128.4 29.8879 120.046C17.3842 111.691 8.1642 99.2591 3.79888 84.8685C-0.56645 70.4779 0.193002 55.019 5.94783 41.1256C11.7027 27.2322 22.0968 15.764 35.3592 8.67512C48.6216 1.58621 63.9317 -0.68483 78.6809 2.24896C93.43 5.18274 106.706 13.1398 116.246 24.7644C125.786 36.389 131 50.9619 131 66" stroke="#18204E" stroke-width="2" stroke-linecap="round"/>
</svg>
