<svg width="24" height="24" viewBox="0 0 24 24" fill="none" xmlns="http://www.w3.org/2000/svg">
<path d="M7.29991 12.2679C7.78832 12.5942 8.36253 12.7684 8.94993 12.7684C9.73734 12.7675 10.4923 12.4543 11.049 11.8976C11.6058 11.3408 11.919 10.5859 11.9199 9.79845C11.9199 9.21105 11.7457 8.63684 11.4194 8.14843C11.093 7.66002 10.6292 7.27936 10.0865 7.05457C9.5438 6.82978 8.94664 6.77096 8.37052 6.88556C7.7944 7.00016 7.26521 7.28302 6.84985 7.69837C6.4345 8.11373 6.15164 8.64293 6.03704 9.21904C5.92244 9.79516 5.98126 10.3923 6.20605 10.935C6.43084 11.4777 6.8115 11.9415 7.29991 12.2679Z" fill="#5F738C"/>
<path d="M4.65999 20.0283H13.2399C13.4149 20.0283 13.5828 19.9588 13.7066 19.835C13.8303 19.7112 13.8999 19.5434 13.8999 19.3683V19.0383C13.8999 17.7255 13.3784 16.4665 12.4501 15.5382C11.5218 14.6099 10.2627 14.0884 8.94993 14.0884C7.63713 14.0884 6.37809 14.6099 5.4498 15.5382C4.52151 16.4665 4 17.7255 4 19.0383V19.3683C4 19.5434 4.06953 19.7112 4.19331 19.835C4.31708 19.9588 4.48495 20.0283 4.65999 20.0283Z" fill="#5F738C"/>
<path d="M15.7101 9.93992C15.1227 9.93992 14.5485 9.76573 14.06 9.43939C13.5716 9.11305 13.191 8.6492 12.9662 8.10651C12.7414 7.56382 12.6826 6.96667 12.7972 6.39055C12.9118 5.81443 13.1946 5.28524 13.61 4.86988C14.0253 4.45453 14.5545 4.17166 15.1307 4.05707C15.7068 3.94247 16.3039 4.00129 16.8466 4.22608C17.3893 4.45087 17.8532 4.83153 18.1795 5.31994C18.5058 5.80835 18.68 6.38256 18.68 6.96996C18.6792 7.75737 18.366 8.51229 17.8092 9.06907C17.2524 9.62586 16.4975 9.93904 15.7101 9.93992ZM14.7722 11.2738C14.1575 11.3562 13.5665 11.5648 13.0361 11.8863C12.5058 12.2078 12.0475 12.6353 11.6901 13.1422C13.169 13.8138 14.3311 15.0312 14.9333 16.5398H19.34C19.5151 16.5398 19.6829 16.4703 19.8067 16.3465C19.9305 16.2227 20 16.0549 20 15.8798V15.8548C19.9993 15.1969 19.8583 14.5467 19.5864 13.9477C19.3144 13.3486 18.9178 12.8145 18.423 12.3809C17.9282 11.9474 17.3467 11.6243 16.7171 11.4334C16.0875 11.2425 15.4245 11.1881 14.7722 11.2738Z" fill="#CCD0EE"/>
</svg>
