<svg width="24" height="24" viewBox="0 0 24 24" fill="none" xmlns="http://www.w3.org/2000/svg">
<path d="M11.9999 9.33337C11.4725 9.33337 10.9569 9.48977 10.5184 9.78279C10.0799 10.0758 9.73807 10.4923 9.53624 10.9796C9.33441 11.4668 9.2816 12.003 9.38449 12.5203C9.48739 13.0376 9.74136 13.5127 10.1143 13.8857C10.4872 14.2586 10.9624 14.5126 11.4797 14.6155C11.997 14.7184 12.5331 14.6656 13.0204 14.4637C13.5077 14.2619 13.9242 13.9201 14.2172 13.4816C14.5102 13.043 14.6666 12.5275 14.6666 12C14.6666 11.2928 14.3856 10.6145 13.8855 10.1144C13.3854 9.61433 12.7072 9.33337 11.9999 9.33337ZM11.9999 13.3334C11.7362 13.3334 11.4784 13.2552 11.2592 13.1087C11.0399 12.9622 10.869 12.7539 10.7681 12.5103C10.6672 12.2667 10.6408 11.9986 10.6922 11.7399C10.7437 11.4813 10.8706 11.2437 11.0571 11.0572C11.2436 10.8708 11.4812 10.7438 11.7398 10.6923C11.9984 10.6409 12.2665 10.6673 12.5102 10.7682C12.7538 10.8691 12.962 11.04 13.1085 11.2593C13.2551 11.4785 13.3333 11.7363 13.3333 12C13.3333 12.3537 13.1928 12.6928 12.9427 12.9428C12.6927 13.1929 12.3535 13.3334 11.9999 13.3334Z" fill="#3F45EA"/>
<path d="M18.196 13.2667L17.9 13.096C18.0333 12.371 18.0333 11.6277 17.9 10.9027L18.196 10.732C18.4237 10.6007 18.6232 10.4258 18.7832 10.2174C18.9433 10.0089 19.0607 9.77103 19.1288 9.51721C19.1969 9.2634 19.2143 8.99866 19.1801 8.73811C19.1459 8.47755 19.0607 8.22629 18.9294 7.99867C18.798 7.77104 18.6232 7.57151 18.4147 7.41147C18.2063 7.25143 17.9684 7.134 17.7146 7.06591C17.4608 6.99781 17.196 6.98037 16.9355 7.01459C16.6749 7.04881 16.4237 7.13401 16.196 7.26533L15.8994 7.43667C15.3391 6.95795 14.6951 6.58683 14 6.342V6C14 5.46957 13.7893 4.96086 13.4142 4.58579C13.0392 4.21071 12.5305 4 12 4C11.4696 4 10.9609 4.21071 10.5858 4.58579C10.2107 4.96086 10 5.46957 10 6V6.342C9.30496 6.58771 8.66126 6.95973 8.10136 7.43933L7.80336 7.26667C7.34365 7.00145 6.79742 6.92971 6.28482 7.06724C5.77222 7.20477 5.33525 7.54029 5.07003 8C4.80481 8.45971 4.73308 9.00595 4.8706 9.51855C5.00813 10.0311 5.34365 10.4681 5.80336 10.7333L6.09936 10.904C5.9661 11.629 5.9661 12.3723 6.09936 13.0973L5.80336 13.268C5.34365 13.5332 5.00813 13.9702 4.8706 14.4828C4.73308 14.9954 4.80481 15.5416 5.07003 16.0013C5.33525 16.461 5.77222 16.7966 6.28482 16.9341C6.79742 17.0716 7.34365 16.9999 7.80336 16.7347L8.10003 16.5633C8.66054 17.0421 9.30468 17.4132 10 17.658V18C10 18.5304 10.2107 19.0391 10.5858 19.4142C10.9609 19.7893 11.4696 20 12 20C12.5305 20 13.0392 19.7893 13.4142 19.4142C13.7893 19.0391 14 18.5304 14 18V17.658C14.6951 17.4123 15.3388 17.0403 15.8987 16.5607L16.1967 16.7327C16.6564 16.9979 17.2026 17.0696 17.7152 16.9321C18.2278 16.7946 18.6648 16.459 18.93 15.9993C19.1952 15.5396 19.267 14.9934 19.1295 14.4808C18.9919 13.9682 18.6564 13.5312 18.1967 13.266L18.196 13.2667ZM16.4974 10.7493C16.7231 11.5674 16.7231 12.4313 16.4974 13.2493C16.4579 13.3917 16.4669 13.5432 16.5229 13.6799C16.5789 13.8166 16.6787 13.9308 16.8067 14.0047L17.5294 14.422C17.6826 14.5104 17.7944 14.6561 17.8402 14.8269C17.886 14.9977 17.8621 15.1798 17.7737 15.333C17.6853 15.4862 17.5396 15.598 17.3688 15.6438C17.198 15.6897 17.0159 15.6657 16.8627 15.5773L16.1387 15.1587C16.0106 15.0845 15.8615 15.055 15.7149 15.075C15.5682 15.0949 15.4323 15.163 15.3287 15.2687C14.7353 15.8744 13.9877 16.3067 13.1667 16.5187C13.0234 16.5555 12.8964 16.639 12.8058 16.7559C12.7151 16.8729 12.666 17.0167 12.666 17.1647V18C12.666 18.1768 12.5958 18.3464 12.4708 18.4714C12.3457 18.5964 12.1762 18.6667 11.9994 18.6667C11.8226 18.6667 11.653 18.5964 11.528 18.4714C11.4029 18.3464 11.3327 18.1768 11.3327 18V17.1653C11.3328 17.0174 11.2836 16.8736 11.193 16.7566C11.1023 16.6397 10.9753 16.5562 10.832 16.5193C10.0109 16.3065 9.26358 15.8733 8.6707 15.2667C8.56705 15.161 8.43119 15.0929 8.28453 15.073C8.13788 15.053 7.98877 15.0825 7.8607 15.1567L7.13803 15.5747C7.06218 15.6191 6.97829 15.6482 6.89118 15.6601C6.80407 15.672 6.71546 15.6665 6.63046 15.6441C6.54547 15.6216 6.46575 15.5825 6.39591 15.5291C6.32607 15.4757 6.26748 15.409 6.22352 15.3329C6.17956 15.2567 6.15109 15.1727 6.13976 15.0855C6.12843 14.9983 6.13445 14.9097 6.15749 14.8249C6.18052 14.74 6.22012 14.6606 6.27398 14.5911C6.32785 14.5216 6.39493 14.4635 6.47136 14.42L7.19403 14.0027C7.322 13.9288 7.42181 13.8146 7.4778 13.6779C7.53379 13.5412 7.54278 13.3897 7.50336 13.2473C7.2776 12.4293 7.2776 11.5654 7.50336 10.7473C7.54207 10.6053 7.53265 10.4544 7.47657 10.3182C7.42049 10.182 7.32091 10.0683 7.19336 9.99467L6.4707 9.57733C6.31749 9.48893 6.20568 9.34328 6.15985 9.17244C6.11403 9.00159 6.13796 8.81954 6.22636 8.66633C6.31477 8.51313 6.46041 8.40131 6.63126 8.35549C6.8021 8.30967 6.98416 8.33359 7.13736 8.422L7.86136 8.84067C7.98908 8.91501 8.13788 8.94481 8.28438 8.92538C8.43088 8.90595 8.56677 8.8384 8.6707 8.73333C9.26409 8.12756 10.0116 7.69535 10.8327 7.48333C10.9765 7.44638 11.1038 7.3625 11.1945 7.245C11.2851 7.1275 11.334 6.98309 11.3334 6.83467V6C11.3334 5.82319 11.4036 5.65362 11.5286 5.5286C11.6536 5.40357 11.8232 5.33333 12 5.33333C12.1768 5.33333 12.3464 5.40357 12.4714 5.5286C12.5965 5.65362 12.6667 5.82319 12.6667 6V6.83467C12.6666 6.98264 12.7158 7.12643 12.8064 7.24339C12.8971 7.36035 13.0241 7.44382 13.1674 7.48067C13.9887 7.69344 14.7363 8.12659 15.3294 8.73333C15.433 8.83898 15.5689 8.90713 15.7155 8.92704C15.8622 8.94696 16.0113 8.91751 16.1394 8.84333L16.862 8.42533C16.9379 8.38087 17.0218 8.35185 17.1089 8.33993C17.196 8.32802 17.2846 8.33346 17.3696 8.35593C17.4546 8.37841 17.5343 8.41747 17.6042 8.47088C17.674 8.52428 17.7326 8.59097 17.7765 8.66711C17.8205 8.74326 17.849 8.82734 17.8603 8.91453C17.8716 9.00171 17.8656 9.09028 17.8426 9.17513C17.8195 9.25998 17.7799 9.33943 17.7261 9.40892C17.6722 9.4784 17.6051 9.53655 17.5287 9.58L16.806 9.99733C16.6787 10.0711 16.5794 10.185 16.5236 10.3211C16.4678 10.4573 16.4585 10.6081 16.4974 10.75V10.7493Z" fill="#18204E"/>
</svg>
