<svg width="24" height="24" viewBox="0 0 24 24" fill="none" xmlns="http://www.w3.org/2000/svg">
<path d="M12 3C10.22 3 8.47991 3.52784 6.99987 4.51677C5.51983 5.50571 4.36628 6.91131 3.68509 8.55585C3.0039 10.2004 2.82567 12.01 3.17294 13.7558C3.5202 15.5016 4.37737 17.1053 5.63604 18.364C6.89472 19.6226 8.49836 20.4798 10.2442 20.8271C11.99 21.1743 13.7996 20.9961 15.4442 20.3149C17.0887 19.6337 18.4943 18.4802 19.4832 17.0001C20.4722 15.5201 21 13.78 21 12C20.9974 9.61384 20.0484 7.32616 18.3611 5.63889C16.6738 3.95162 14.3862 3.00258 12 3V3ZM12 18.75C10.665 18.75 9.35994 18.3541 8.24991 17.6124C7.13987 16.8707 6.27471 15.8165 5.76382 14.5831C5.25293 13.3497 5.11925 11.9925 5.3797 10.6831C5.64015 9.37377 6.28303 8.17103 7.22703 7.22703C8.17104 6.28302 9.37377 5.64015 10.6831 5.3797C11.9925 5.11925 13.3497 5.25292 14.5831 5.76381C15.8165 6.2747 16.8707 7.13987 17.6124 8.2499C18.3541 9.35993 18.75 10.665 18.75 12C18.748 13.7896 18.0362 15.5053 16.7708 16.7708C15.5053 18.0362 13.7896 18.748 12 18.75Z" fill="#5F738C"/>
<path d="M12.0037 17.25C12.625 17.25 13.1287 16.7463 13.1287 16.125C13.1287 15.5037 12.625 15 12.0037 15C11.3823 15 10.8787 15.5037 10.8787 16.125C10.8787 16.7463 11.3823 17.25 12.0037 17.25Z" fill="#CCD0EE"/>
<path d="M12.5676 6.74021C12.1089 6.65796 11.6376 6.67732 11.1872 6.79692C10.7367 6.91652 10.3179 7.13345 9.9604 7.43243C9.60286 7.73141 9.31523 8.10516 9.11778 8.52735C8.92034 8.94953 8.81788 9.40989 8.81763 9.87596C8.81763 10.1743 8.93615 10.4605 9.14713 10.6715C9.35811 10.8824 9.64426 11.001 9.94263 11.001C10.241 11.001 10.5271 10.8824 10.7381 10.6715C10.9491 10.4605 11.0676 10.1743 11.0676 9.87596C11.0683 9.71091 11.1126 9.54898 11.1961 9.40658C11.2795 9.26418 11.3991 9.14638 11.5428 9.06512C11.6865 8.98386 11.8491 8.94204 12.0141 8.94388C12.1791 8.94573 12.3408 8.99119 12.4826 9.07564C12.6244 9.1601 12.7413 9.28054 12.8216 9.42478C12.9018 9.56901 12.9425 9.73189 12.9395 9.89692C12.9364 10.0619 12.8899 10.2232 12.8044 10.3644C12.7189 10.5056 12.5977 10.6217 12.4529 10.701C11.9888 10.8953 11.5944 11.2256 11.3216 11.6484C11.0488 12.0711 10.9103 12.5665 10.9244 13.0695C10.9244 13.3678 11.0429 13.654 11.2539 13.865C11.4649 14.0759 11.751 14.1945 12.0494 14.1945C12.3477 14.1945 12.6339 14.0759 12.8449 13.865C13.0559 13.654 13.1744 13.3678 13.1744 13.0695C13.1737 13.0147 13.1777 12.96 13.1864 12.906C13.2914 12.8101 13.4106 12.7309 13.5396 12.6712C14.1158 12.3536 14.5795 11.8655 14.8671 11.2739C15.1547 10.6822 15.2521 10.016 15.1459 9.36678C15.0397 8.71754 14.7352 8.11709 14.2741 7.64788C13.813 7.17866 13.2179 6.86369 12.5706 6.74621L12.5676 6.74021Z" fill="#CCD0EE"/>
</svg>
